# xmcd
#
# Track frame offsets: 
#        183
#        9968
#        25560
#        35053
#        44275
#        63645
#        84208
#        94998
#        106713
#        120815
#        135613
#        149815
#        160473
#        178875
#        192453
#        202385
#        215750
#        229560
#        243643
#        255143
#        262890
#        276473
#        287685
#        295778
#
# Disc length: 4221 seconds
#
# Revision: 1
# Processed by: cddbd v1.5PL3 Copyright (c) Steve Scherf et al.
# Submitted via: ExactAudioCopy v0.95a3
#
DISCID=64107b18
DTITLE=Screamin Jay Hawkins - Spellbound 1955-1974 - CD2
DYEAR=1990
DGENRE=Rock
TTITLE0=What that Is
TTITLE1=Feast of the Mau Mau
TTITLE2=Do You Really Love Me
TTITLE3=Stone Crazy
TTITLE4=I love You
TTITLE5=Constipation Blues
TTITLE6=I'm Lonely
TTITLE7=Thing Called Woman
TTITLE8=Dig!
TTITLE9=I'm Your Man
TTITLE10=Ask Him
TTITLE11=Reprise
TTITLE12=Please Don't Leave Me
TTITLE13=I Wanta Know
TTITLE14=I Need You
TTITLE15=My Marion
TTITLE16=Bite It
TTITLE17=Move Me
TTITLE18=Good Night My Love
TTITLE19=Our Love is Not for Three
TTITLE20=Ain't Nobody's Business
TTITLE21=Take Me Back
TTITLE22=Trying to Reach My Goal
TTITLE23=So Long
EXTD=
EXTT0=
EXTT1=
EXTT2=
EXTT3=
EXTT4=
EXTT5=
EXTT6=
EXTT7=
EXTT8=
EXTT9=
EXTT10=
EXTT11=
EXTT12=
EXTT13=
EXTT14=
EXTT15=
EXTT16=
EXTT17=
EXTT18=
EXTT19=
EXTT20=
EXTT21=
EXTT22=
EXTT23=
PLAYORDER=
